<?xml version="1.0" encoding="utf-8"?>
<!-- Generator: Adobe Illustrator 16.0.0, SVG Export Plug-In . SVG Version: 6.00 Build 0)  -->
<!DOCTYPE svg PUBLIC "-//W3C//DTD SVG 1.1//EN" "http://www.w3.org/Graphics/SVG/1.1/DTD/svg11.dtd">
<svg version="1.1" id="Layer_1" xmlns="http://www.w3.org/2000/svg" xmlns:xlink="http://www.w3.org/1999/xlink" x="0px" y="0px"
	 width="100px" height="100px" viewBox="0 0 100 100" style="enable-background:new 0 0 100 100;" xml:space="preserve">
<g>
	<path d="M90,55.8c0,0.7-0.6,1.4-1.5,1.6l-9.6,1.2c-0.6,1.4-1.2,2.7-2,4c1.8,2.1,3.6,4.1,5.6,6c0.3,0.3,0.5,0.7,0.5,1.1
		c0,0.4-0.2,0.7-0.5,1c-1.2,1.4-8.3,7.8-10,7.8c-0.5,0-0.9-0.2-1.4-0.4l-7.2-4.7c-1.5,0.7-3.1,1.2-4.7,1.7c-0.4,2.7-0.7,5.5-1.5,8.1
		c-0.2,0.7-0.9,1.2-1.9,1.2H44.2c-0.9,0-1.8-0.6-1.9-1.3l-1.5-8c-1.6-0.4-3.2-1-4.7-1.6l-7.3,4.7c-0.4,0.3-0.8,0.4-1.3,0.4
		s-0.9-0.2-1.3-0.5c-2.8-2.1-6.4-4.8-8.6-7.3c-0.3-0.3-0.4-0.7-0.4-1c0-0.4,0.2-0.7,0.4-1c1.8-2,3.7-3.9,5.5-6
		c-0.9-1.4-1.6-2.8-2.1-4.3l-9.5-1.2c-0.9-0.1-1.5-0.8-1.5-1.6v-9.7c0-0.7,0.6-1.4,1.4-1.6l9.7-1.2c0.5-1.4,1.2-2.7,2-4
		c-1.8-2.1-3.6-4.1-5.6-6c-0.3-0.3-0.5-0.7-0.5-1c0-0.4,0.2-0.7,0.5-1c1.2-1.4,8.3-7.8,10-7.8c0.5,0,0.9,0.2,1.4,0.4l7.2,4.7
		c1.5-0.7,3.1-1.2,4.7-1.7c0.4-2.7,0.7-5.5,1.5-8.1c0.2-0.7,0.9-1.2,1.9-1.2h11.6c0.9,0,1.8,0.6,1.9,1.3l1.5,8
		c1.6,0.4,3.2,1,4.7,1.6l7.4-4.7c0.3-0.3,0.8-0.4,1.2-0.4s0.9,0.2,1.3,0.4c2.8,2.1,6.4,4.8,8.6,7.4c0.3,0.3,0.4,0.6,0.4,1
		c0,0.4-0.2,0.7-0.4,1c-1.8,2-3.7,3.9-5.5,6c0.9,1.4,1.6,2.8,2.1,4.3l9.5,1.2c0.9,0.1,1.5,0.8,1.5,1.6V55.8z M50,39.7
		c-7.3,0-13.3,5-13.3,11.2C36.7,57,42.7,62,50,62c7.3,0,13.3-5,13.3-11.2C63.3,44.7,57.3,39.7,50,39.7z"/>
</g>
<g>
</g>
<g>
</g>
<g>
</g>
<g>
</g>
<g>
</g>
<g>
</g>
</svg>
