<?xml version="1.0" encoding="utf-8"?>
<!-- Generator: Adobe Illustrator 16.0.0, SVG Export Plug-In . SVG Version: 6.00 Build 0)  -->
<!DOCTYPE svg PUBLIC "-//W3C//DTD SVG 1.1//EN" "http://www.w3.org/Graphics/SVG/1.1/DTD/svg11.dtd">
<svg version="1.1" id="Layer_1" xmlns="http://www.w3.org/2000/svg" xmlns:xlink="http://www.w3.org/1999/xlink" x="0px" y="0px"
	 width="100px" height="100px" viewBox="0 0 100 100" style="enable-background:new 0 0 100 100;" xml:space="preserve">
<g>
	<path d="M85.5,55.3c-0.2,0.3-0.6,0.4-1,0.5c0,0-0.1,0-0.1,0c-0.4,0-0.7-0.1-1-0.3L50,30.3L16.7,55.5c-0.3,0.2-0.7,0.3-1.2,0.3
		c-0.4,0-0.8-0.2-1-0.5l-3-3.2c-0.5-0.6-0.4-1.5,0.2-2l34.6-26.2c2-1.5,5.3-1.5,7.3,0l11.8,8.9v-8.5c0-0.8,0.7-1.4,1.5-1.4h9.2
		c0.9,0,1.5,0.6,1.5,1.4v17.8l10.5,7.9c0.6,0.5,0.7,1.4,0.2,2L85.5,55.3z M77.7,76c0,1.5-1.4,2.8-3.1,2.8H56.2V62H43.8v16.8H25.3
		c-1.7,0-3.1-1.3-3.1-2.8v-21c0-0.1,0-0.2,0-0.3L50,34.1l27.7,20.7c0,0.1,0,0.2,0,0.3V76z"/>
</g>
<g>
</g>
<g>
</g>
<g>
</g>
<g>
</g>
<g>
</g>
<g>
</g>
</svg>
