<svg
	version="1.1"
	xmlns="http://www.w3.org/2000/svg"
	viewBox="0 0 100 100">

	 <path d="M29.6,18.3c0,0,0.3-0.1,0.2,0.1c-0.9,0.9-18,20.5-2.3,35.7C35.6,62,42,54.5,42,54.5c6.2-7.9-0.1-19.9-0.1-19.9
		c-1.6-3.9-7.4-6.3-7.4-6.3l4.7-5c3.9,1.7,7,6.1,7,6.1c0.1-4.7-3.5-9.7-3.5-9.7l7.2-8l7.2,7.9c-3.3,4.5-3.5,9.9-3.5,9.9
		c2.2-3.6,7-6.2,7-6.2l4.6,5c-4.4,1.4-7.3,6.3-7.3,6.3c-2.5,4.5-4.4,14.1,0.1,20.1c5.2,7,14.2-0.4,14.2-0.4
		c16.6-14.5-1.7-35.5-1.7-35.5c-1-0.9,0.1-0.4,0.1-0.4c8.1,5.8,18.5,13.3,18.8,32.3C89.6,73.6,73.1,90,50.1,90
		c-22.5,0-40-18.3-39.3-40.1C11.2,37.4,17.8,25.9,29.6,18.3z"/>

</svg>
