<?xml version="1.0" encoding="utf-8"?>
<!-- Generator: Adobe Illustrator 16.0.0, SVG Export Plug-In . SVG Version: 6.00 Build 0)  -->
<!DOCTYPE svg PUBLIC "-//W3C//DTD SVG 1.1//EN" "http://www.w3.org/Graphics/SVG/1.1/DTD/svg11.dtd">
<svg version="1.1" id="Layer_1" xmlns="http://www.w3.org/2000/svg" xmlns:xlink="http://www.w3.org/1999/xlink" x="0px" y="0px"
	 width="100px" height="100px" viewBox="0 0 100 100" style="enable-background:new 0 0 100 100;" xml:space="preserve">
<g>
	<path d="M75,48.1L31.6,84.5H9.9V66.3l43.4-36.4L75,48.1z M33.6,74.9L21.4,64.6l-4.7,4v4.7h6.7v5.6h5.6L33.6,74.9z M55,37.3
		c-0.3,0-0.6,0.1-0.9,0.3L25.8,61.3c-0.3,0.2-0.4,0.5-0.4,0.7c0,0.6,0.5,1,1.1,1c0.3,0,0.6-0.1,0.9-0.3L55.8,39
		c0.3-0.2,0.4-0.5,0.4-0.7C56.2,37.7,55.7,37.3,55,37.3z M87,38l-8.7,7.3L56.7,27.1l8.7-7.2c1.2-1.1,2.9-1.7,4.7-1.7
		c1.8,0,3.5,0.6,4.7,1.7L87,30.1c1.2,1.1,1.9,2.5,1.9,4S88.2,37,87,38z"/>
</g>
<g>
</g>
<g>
</g>
<g>
</g>
<g>
</g>
<g>
</g>
<g>
</g>
</svg>
