<?xml version="1.0" standalone="no"?>
<!DOCTYPE svg PUBLIC "-//W3C//DTD SVG 20010904//EN"
 "http://www.w3.org/TR/2001/REC-SVG-20010904/DTD/svg10.dtd">
<svg version="1.0" xmlns="http://www.w3.org/2000/svg"
 width="1000.000000pt" height="1000.000000pt" viewBox="0 0 1000.000000 1000.000000"
 preserveAspectRatio="xMidYMid meet">
<metadata>
Created by potrace 1.11, written by Peter Selinger 2001-2013
</metadata>
<g transform="translate(0.000000,1000.000000) scale(0.100000,-0.100000)"
fill="#000000" stroke="none">
<path d="M4808 9955 c-320 -50 -624 -243 -807 -513 -208 -307 -261 -731 -135
-1084 122 -343 401 -617 746 -732 146 -49 212 -59 388 -59 176 0 242 10 388
59 407 136 705 476 792 903 40 199 22 453 -46 643 -196 546 -749 872 -1326
783z"/>
<path d="M965 7846 c-292 -67 -478 -295 -478 -586 0 -167 55 -302 173 -421
112 -114 161 -134 520 -218 974 -228 1749 -379 2335 -455 110 -15 218 -29 239
-32 l39 -6 -6 -392 c-25 -1483 -147 -2645 -367 -3491 -100 -385 -278 -900
-450 -1300 -62 -144 -80 -215 -80 -315 0 -268 201 -523 461 -585 195 -46 412
13 557 150 90 84 116 132 218 390 367 933 530 1508 654 2313 l23 142 197 0
197 0 23 -142 c82 -533 191 -997 342 -1458 124 -380 373 -1032 431 -1128 75
-125 233 -236 382 -267 213 -45 401 11 556 165 118 116 179 261 179 420 0 100
-18 171 -80 315 -172 400 -350 915 -450 1300 -220 846 -342 2008 -367 3491
l-6 392 39 6 c21 3 129 17 239 32 586 76 1361 227 2335 455 359 84 408 104
520 218 118 119 173 254 173 421 0 263 -160 485 -408 567 -65 21 -99 26 -185
27 -96 0 -130 -6 -410 -73 -1201 -286 -2044 -433 -2850 -498 -302 -24 -1018
-24 -1320 0 -805 65 -1599 203 -2850 497 -331 78 -422 90 -525 66z"/>
</g>
</svg>
