<?xml version="1.0" standalone="no"?>
<!DOCTYPE svg PUBLIC "-//W3C//DTD SVG 20010904//EN"
 "http://www.w3.org/TR/2001/REC-SVG-20010904/DTD/svg10.dtd">
<svg version="1.0" xmlns="http://www.w3.org/2000/svg"
 width="1000.000000pt" height="1000.000000pt" viewBox="0 0 1000.000000 1000.000000"
 preserveAspectRatio="xMidYMid meet">
<metadata>
Created by potrace 1.11, written by Peter Selinger 2001-2013
</metadata>
<g transform="translate(0.000000,1000.000000) scale(0.100000,-0.100000)"
fill="#000000" stroke="none">
<path d="M4625 9339 c-192 -220 -387 -441 -431 -492 l-81 -92 64 -105 c133
-219 237 -448 298 -659 38 -133 68 -314 63 -385 l-3 -46 -62 83 c-199 267
-485 521 -717 639 -49 25 -61 27 -72 16 -7 -7 -134 -148 -283 -313 l-271 -300
67 -33 c303 -149 557 -345 709 -547 138 -184 316 -645 398 -1031 130 -618 56
-1161 -214 -1559 -137 -202 -407 -380 -677 -447 -131 -32 -323 -30 -454 5
-260 69 -453 189 -704 442 -412 414 -654 871 -746 1410 -27 155 -37 501 -19
671 51 510 236 1045 546 1585 132 231 342 533 475 684 39 45 48 61 36 63 -31
6 -339 -216 -565 -407 -1328 -1125 -1941 -2766 -1666 -4461 143 -888 542
-1731 1140 -2410 123 -140 385 -397 514 -504 681 -569 1484 -929 2350 -1055
255 -37 388 -46 715 -45 331 1 503 13 785 54 1312 195 2426 884 3125 1935 140
210 216 343 316 550 269 559 431 1179 479 1840 13 181 13 660 0 840 -72 979
-360 1766 -889 2434 -292 367 -622 672 -1169 1079 -180 133 -251 176 -269 159
-2 -3 21 -36 52 -72 198 -234 456 -639 624 -980 386 -782 508 -1514 359 -2150
-127 -545 -503 -1093 -957 -1393 -203 -134 -433 -235 -631 -278 -113 -24 -308
-24 -405 0 -38 10 -116 40 -172 67 -84 40 -117 64 -190 133 -464 441 -596
1291 -337 2176 107 369 245 602 513 871 176 175 312 272 481 342 l81 34 -272
304 c-149 167 -275 308 -279 312 -10 11 -184 -98 -312 -195 -213 -161 -390
-336 -491 -485 -23 -34 -45 -63 -48 -63 -8 0 8 127 32 253 56 303 185 634 333
863 57 86 57 87 38 108 -10 11 -204 231 -431 489 -227 257 -416 467 -419 466
-4 0 -164 -180 -357 -400z"/>
</g>
</svg>
